<svg width="100" height="100" viewBox="0 0 100 100" fill="none" xmlns="http://www.w3.org/2000/svg">
<g id="circle">
<g id="circle_2">
<g id="circle_back">
<path id="Ellipse 1 (Stroke)" fill-rule="evenodd" clip-rule="evenodd" d="M50 75C63.8071 75 75 63.8071 75 50C75 36.1929 63.8071 25 50 25C36.1929 25 25 36.1929 25 50C25 63.8071 36.1929 75 50 75ZM50 100C77.6142 100 100 77.6142 100 50C100 22.3858 77.6142 0 50 0C22.3858 0 0 22.3858 0 50C0 77.6142 22.3858 100 50 100Z" fill="#DDDDDD"/>
</g>
<path id="stroke" fill-rule="evenodd" clip-rule="evenodd" d="M50 95C74.8528 95 95 74.8528 95 50C95 25.1472 74.8528 5 50 5C25.1472 5 5 25.1472 5 50C5 74.8528 25.1472 95 50 95ZM50 96C75.4051 96 96 75.4051 96 50C96 24.5949 75.4051 4 50 4C24.5949 4 4 24.5949 4 50C4 75.4051 24.5949 96 50 96ZM50 74C63.2548 74 74 63.2548 74 50C74 36.7452 63.2548 26 50 26C36.7452 26 26 36.7452 26 50C26 63.2548 36.7452 74 50 74ZM50 75C63.8071 75 75 63.8071 75 50C75 36.1929 63.8071 25 50 25C36.1929 25 25 36.1929 25 50C25 63.8071 36.1929 75 50 75ZM41.2493 86.2568L41.9296 86.3906L42.9119 81.3985C43.1042 80.4211 43.6815 80.0669 44.4097 80.2102C45.1188 80.3497 45.5551 80.8636 45.4345 81.4768L46.1052 81.6088C46.3013 80.6123 45.6227 79.8119 44.5304 79.597C43.4093 79.3764 42.4974 79.9136 42.2316 81.2646L41.2493 86.2568ZM27.9209 80.3107L27.3397 79.9326L29.8901 76.0113C30.6781 74.7997 32.1753 74.5037 33.5179 75.3769C34.8687 76.2554 35.197 77.7387 34.409 78.9503L31.8587 82.8717L31.2774 82.4936L33.8011 78.6132C34.4028 77.6881 34.1816 76.5774 33.1665 75.9172C32.1514 75.257 31.0463 75.5052 30.4447 76.4303L27.9209 80.3107ZM25.5154 68.2904L19.9282 72.623L20.353 73.171L25.9403 68.8383L25.5154 68.2904ZM15.5789 59.3926C14.7331 59.8999 14.3605 60.9233 14.7197 61.9356C15.1638 63.1873 16.5045 63.8411 18.3268 63.1945C20.1491 62.5479 20.7779 61.1953 20.3338 59.9436C19.9745 58.9312 19.0403 58.3716 18.0638 58.5108L17.8287 57.8482C19.1495 57.6282 20.4508 58.3167 20.9504 59.7248C21.5513 61.4183 20.6446 63.0974 18.5554 63.8387C16.4662 64.58 14.7039 63.8479 14.103 62.1544C13.6034 60.7463 14.1645 59.4074 15.3438 58.7299L15.5789 59.3926ZM11.968 50.6027L11.9348 51.4028L16.0798 49.0234L19.1046 49.1487L19.1336 48.4461L16.1089 48.3209L12.1748 45.607L12.1417 46.4071L15.393 48.6138L15.3906 48.6723L11.968 50.6027ZM21.1298 38.3852L13.9299 37.0106L14.2435 36.3704L20.3286 37.6011L20.3544 37.5485L15.6572 33.4853L16.0053 32.7749L22.0946 33.9969L22.1204 33.9443L17.4189 29.8898L17.7326 29.2496L23.2309 34.0969L22.9044 34.7634L16.8855 33.6195L16.8641 33.6634L21.4563 37.7187L21.1298 38.3852ZM23.2685 22.6874L27.9141 28.0173L31.087 25.2517L30.6764 24.7806L28.0261 27.0906L26.3129 25.125L28.7496 23.0011L28.3454 22.5373L25.9087 24.6612L24.2019 22.703L26.8005 20.4379L26.3899 19.9668L23.2685 22.6874ZM36.6043 21.8362L34.1767 15.1957L36.4422 14.3675C37.7537 13.888 38.6765 14.3928 39.042 15.3926C39.3438 16.218 39.0437 16.8476 38.5045 17.2215L38.5246 17.2765C39.1926 17.0843 40.0893 17.4324 40.4615 18.4505C40.827 19.4502 40.4382 20.4346 38.989 20.9643L36.6043 21.8362ZM38.7653 20.3807C39.7833 20.0085 40.07 19.3422 39.8253 18.6727C39.5537 17.9297 38.7579 17.5448 37.8774 17.8667L36.1255 18.5071L37.0409 21.0111L38.7653 20.3807ZM37.5686 17.3349C38.339 17.0533 38.6832 16.3452 38.4183 15.6206C38.1702 14.9419 37.5464 14.6292 36.6476 14.9578L35.0425 15.5446L35.9177 17.9385L37.5686 17.3349ZM48.0327 11.9427L47.9201 19.0121L48.6133 19.0231L48.656 16.3477L50.2866 16.3737C51.8001 16.3978 52.5867 15.4532 52.6065 14.2131C52.6264 12.9633 51.8701 12.0038 50.3469 11.9796L48.0327 11.9427ZM50.2673 15.7483L48.6659 15.7228L48.716 12.5787L50.3076 12.604C51.4207 12.6217 51.9376 13.2844 51.923 14.2022C51.9085 15.1103 51.3707 15.7659 50.2673 15.7483ZM65.256 19.1814C64.3963 21.2247 62.6679 22.0337 61.0207 21.3406C59.3645 20.6437 58.7345 18.8424 59.5942 16.7991C60.454 14.7558 62.1824 13.9468 63.8386 14.6437C65.4858 15.3368 66.1158 17.1381 65.256 19.1814ZM64.6349 18.9201C65.3659 17.1829 64.845 15.777 63.5848 15.2468C62.3246 14.7165 60.9553 15.327 60.2243 17.0642C59.4971 18.7925 60.0053 20.2035 61.2745 20.7375C62.5346 21.2678 63.904 20.6573 64.6349 18.9201ZM74.541 21.3018L69.5654 26.3251L70.058 26.813L72.051 24.8009L73.2097 25.9486C73.2687 26.007 73.3311 26.062 73.39 26.1135L72.4795 29.2115L73.0484 29.775L73.9927 26.518C74.8199 26.9319 75.651 26.7311 76.3177 26.0581C77.1905 25.177 77.2677 24.0027 76.1854 22.9306L74.541 21.3018ZM73.6356 25.477L72.4977 24.35L74.5938 22.2338L75.7247 23.354C76.5157 24.1375 76.4711 24.9318 75.832 25.5771C75.1929 26.2223 74.4196 26.2536 73.6356 25.477ZM82.0685 31.5067L82.6382 31.2497L84.7623 35.9588L84.1926 36.2158L83.2771 34.1862L77.4018 36.8363L77.1127 36.1953L82.988 33.5452L82.0685 31.5067ZM87.0692 45.2133L80.0105 45.6183L80.0502 46.3105L83.2773 46.1254L83.4558 49.2355L84.07 49.2002L83.8915 46.0901L86.4849 45.9413L86.6818 49.3732L87.3058 49.3374L87.0692 45.2133ZM81.1103 62.9202C79.0095 62.2123 78.0762 60.5478 78.6469 58.8542C79.2207 57.1515 80.9711 56.3913 83.0719 57.0993C85.1726 57.8072 86.1059 59.4717 85.5321 61.1745C84.9614 62.868 83.211 63.6281 81.1103 62.9202ZM81.3254 62.2817C83.1115 62.8836 84.4755 62.2611 84.9121 60.9655C85.3487 59.6699 84.6396 58.349 82.8536 57.7471C81.0767 57.1483 79.7067 57.7583 79.2669 59.0632C78.8303 60.3588 79.5394 61.6798 81.3254 62.2817ZM79.6751 72.3354L74.3012 67.7407L71.6739 70.8136L72.1489 71.2198L74.3257 68.6739L79.2245 72.8624L79.6751 72.3354ZM69.6454 81.4326L65.8855 75.4449L66.4727 75.0762L70.2326 81.0639L69.6454 81.4326ZM56.9358 79.1397C55.1942 79.5404 54.265 81.2072 54.7621 83.3676C55.2591 85.5279 56.8234 86.621 58.565 86.2203C60.3161 85.8174 61.2453 84.1506 60.7482 81.9902C60.2512 79.8299 58.6869 78.7368 56.9358 79.1397ZM58.4183 85.5827C57.0859 85.8892 55.8414 85.0533 55.4187 83.2165C54.9961 81.3797 55.7502 80.0839 57.0825 79.7773C58.4244 79.4686 59.6616 80.3163 60.0821 82.1435C60.5047 83.9803 59.7506 85.2761 58.4183 85.5827Z" fill="black"/>
</g>
</g>
</svg>
