<svg width="129" height="126" viewBox="0 0 129 126" fill="none" xmlns="http://www.w3.org/2000/svg">
<path fill-rule="evenodd" clip-rule="evenodd" d="M64.7953 41.9431C68.5764 35.7893 73.7099 29.2968 79.9286 23.089C98.2344 4.81441 119.01 -4.07423 126.332 3.23557C133.655 10.5454 124.751 31.2856 106.445 49.5601C101.123 54.8729 95.5925 59.3925 90.2444 62.9513C95.5096 66.4823 100.945 70.9398 106.179 76.1643C124.484 94.4389 133.388 115.179 126.066 122.489C118.744 129.799 97.9679 120.91 79.6619 102.635C73.1518 96.1364 67.8307 89.3255 64.0057 82.9176C60.3457 88.5672 55.5862 94.4507 49.9286 100.099C31.6228 118.373 10.847 127.262 3.52469 119.952C-3.79766 112.642 5.10623 91.902 23.4121 73.6275C28.0351 69.0122 32.8156 64.9957 37.4973 61.6875C32.7307 58.3441 27.8564 54.2628 23.1457 49.5601C4.83979 31.2856 -4.06409 10.5454 3.25823 3.23556C10.5806 -4.07425 31.3563 4.81441 49.6621 23.089C55.8806 29.2968 61.0143 35.7893 64.7953 41.9431Z" fill="#FBEFF2"/>
</svg>
