<svg width="465" height="491" viewBox="0 0 465 491" fill="none" xmlns="http://www.w3.org/2000/svg">
<g id="ghost">
<path id="right_eye" d="M322 193C322 209.56 311.92 223 299.5 223C287.08 223 277 209.56 277 193C277 176.44 287.08 163 299.5 163C311.92 163 322 176.44 322 193Z" fill="black"/>
<path id="left_eye" d="M165.5 223C177.926 223 188 209.569 188 193C188 176.431 177.926 163 165.5 163C153.074 163 143 176.431 143 193C143 209.569 153.074 223 165.5 223Z" fill="black"/>
<path id="ghost_layout" d="M455 428.259V253.101C455 118.795 355.387 10 232.5 10C109.613 10 10 118.842 10 253.078V428.259C10 459.458 40.0597 479.754 65.625 465.806C75.7321 460.275 87.0665 457.762 98.4162 458.535C109.766 459.308 120.704 463.339 130.061 470.196C140.551 477.883 153 482 165.75 482C178.5 482 190.949 477.883 201.439 470.196L209.293 464.485C216.116 459.49 224.21 456.814 232.5 456.814C240.79 456.814 248.884 459.49 255.707 464.485L263.561 470.196C274.051 477.883 286.5 482 299.25 482C312 482 324.449 477.883 334.939 470.196C344.298 463.334 355.241 459.301 366.595 458.528C377.949 457.755 389.287 460.271 399.397 465.806C424.94 479.754 455 459.458 455 428.259Z" stroke="black" stroke-width="20"/>
</g>
</svg>
