<svg width="220" height="57" viewBox="0 0 220 57" fill="none" xmlns="http://www.w3.org/2000/svg">
<path id="JANE !" d="M0.29625 39.784H12.4563C12.4563 43.816 15.0803 45.608 18.8563 45.608C23.0163 45.608 25.2563 42.984 25.2563 38.952V1.832H38.0563V38.568C38.0563 48.232 31.0163 56.808 18.8563 56.808C6.69625 56.808 0.29625 49.128 0.29625 39.784ZM77.8868 55.976L74.2388 45.864H56.0628L52.4148 55.976H38.7188L58.8148 1.832H71.5508L91.5828 55.976H77.8868ZM76.8628 25.256C68.0308 25.256 65.2788 17.128 65.1508 7.656C65.0228 17.128 62.2068 25.256 53.4388 25.256C62.4628 25.256 65.1508 34.472 65.1508 43.624C65.1508 34.472 67.8388 25.256 76.8628 25.256ZM139.658 55.976H126.986L111.05 29.288C109.706 27.048 108.682 25.32 107.082 23.144C107.338 26.152 107.466 29.16 107.466 31.848V55.976H94.7938V1.832H107.466L123.018 27.24C124.618 29.864 126.154 32.68 127.37 35.816C126.986 32.872 126.986 29.736 126.986 26.728V1.832H139.658V55.976ZM183.1 55.976H146.044V1.832H183.1V12.072H158.844V23.272H182.46V33.64H158.844V47.016C168.316 47.016 175.356 45.928 183.1 43.176V55.976ZM207.848 36.712L205.48 0.359997H218.536L216.168 36.712H207.848ZM212.008 56.808C207.72 56.808 204.776 53.736 204.776 49.704C204.776 45.544 207.72 42.472 212.008 42.472C216.232 42.472 219.24 45.544 219.24 49.704C219.24 53.736 216.232 56.808 212.008 56.808Z" fill="white"/>
</svg>
