<svg xmlns="http://www.w3.org/2000/svg" width="200" height="auto" fill="none" viewBox="0 0 170 89">
  <g clip-path="url(#a)">
    <path id="outer" fill="#000" d="M163.123 16.626c-17.149-14.88-61.121-13.795-99.199 2.202 29.19-9.542 59.939-9.052 72.782 2.091 14.723 12.776.344 34.713-32.116 48.998-32.46 14.286-70.71 15.511-85.434 2.737a19.94 19.94 0 0 1-1.03-.962c1.136 2.32 2.831 4.5 5.126 6.492 17.52 15.2 63.032 13.743 101.657-3.256 38.624-16.998 55.733-43.1 38.214-58.302Z"/>
    <path fill="#000" d="m165.971 61.316-11.576-14.013 10.896-14.2a1.57 1.57 0 0 0 .162-1.646 1.587 1.587 0 0 0-.299-.412l-.061-.06c-.019-.021-.041-.041-.062-.062-.019-.022-.041-.041-.06-.061l-.062-.062-.061-.06c-.02-.022-.041-.042-.062-.063l-.061-.06c-.019-.022-.04-.042-.062-.063-.019-.021-.04-.04-.06-.06-.02-.022-.041-.041-.062-.063l-.061-.06-.06-.061-.062-.062-.061-.06c-.02-.022-.041-.042-.062-.063l-.061-.06c-.019-.022-.041-.042-.062-.063l-.06-.06c-.02-.022-.041-.041-.062-.063l-.061-.06-.061-.06c-.019-.022-.04-.042-.062-.063-.019-.021-.04-.04-.06-.06-.02-.022-.041-.042-.062-.063l-.061-.06c-.02-.022-.041-.041-.062-.063l-.06-.06-.062-.062c-.02-.022-.041-.041-.061-.061l-.062-.062-.061-.06c-.019-.022-.041-.042-.06-.062l-.062-.062-.061-.06-.062-.063-.061-.06c-.019-.021-.04-.041-.062-.062-.019-.021-.04-.041-.06-.061l-.062-.062-.061-.06c-.02-.022-.041-.042-.06-.061-.02-.022-.041-.041-.062-.063l-.061-.06-.062-.062-.061-.061c-.019-.021-.041-.041-.062-.062-.019-.021-.041-.041-.06-.06-.02-.022-.041-.042-.062-.063l-.061-.06c-.02-.022-.041-.042-.062-.063a1.56 1.56 0 0 0-1.164-.522H147.12c-.492 0-.954.232-1.25.625l-1.996 2.658c-.01-.01-.023-.018-.034-.028l-.062-.062-.06-.06c-.02-.022-.041-.042-.062-.063l-.061-.06c-.02-.022-.041-.042-.062-.063l-.061-.06c-.019-.022-.041-.041-.06-.063a1.417 1.417 0 0 0-.062-.06l-.061-.062a1.417 1.417 0 0 0-.062-.061l-.061-.06c-.019-.022-.04-.042-.062-.063-.019-.021-.04-.04-.06-.06-.02-.022-.041-.042-.062-.063l-.061-.06c-.02-.022-.041-.041-.06-.063a1.417 1.417 0 0 0-.062-.06l-.061-.062a1.417 1.417 0 0 0-.062-.061l-.061-.06c-.019-.022-.041-.042-.062-.063-.019-.021-.041-.04-.06-.06-.02-.022-.041-.041-.062-.063l-.061-.06-.062-.062c-.02-.022-.041-.041-.061-.061l-.06-.062c-.02-.021-.041-.041-.062-.06l-.061-.063c-.02-.021-.041-.04-.062-.06-.02-.022-.041-.042-.06-.061-.02-.022-.041-.041-.062-.063l-.061-.06-.062-.062-.061-.061c-.019-.021-.041-.04-.06-.062-.02-.021-.041-.041-.062-.06l-.061-.063c-.02-.021-.041-.04-.062-.06-.02-.022-.041-.041-.061-.061-.019-.021-.04-.041-.062-.062-.019-.022-.041-.041-.06-.061l-.062-.062-.061-.06c-.02-.022-.041-.042-.062-.063a1.553 1.553 0 0 0-1.133-.493h-12.372c-.864 0-1.563.702-1.563 1.566v19.585h-7.908v-5.142c0-.331-.102-.639-.279-.893.387-.285.637-.744.637-1.262v-9.158c0-.447-.19-.85-.491-1.134l-.061-.063a1.417 1.417 0 0 0-.062-.06l-.061-.062c-.019-.021-.041-.041-.062-.061-.019-.021-.041-.041-.06-.06-.02-.022-.041-.042-.062-.063l-.061-.06c-.02-.022-.041-.041-.062-.063l-.061-.06c-.019-.021-.04-.041-.062-.062-.019-.022-.04-.041-.06-.061l-.061-.062a1.417 1.417 0 0 0-.062-.06l-.06-.063a1.417 1.417 0 0 0-.062-.06c-.02-.022-.041-.042-.061-.061-.02-.022-.041-.041-.062-.063l-.061-.06c-.019-.021-.041-.041-.062-.062-.019-.022-.041-.041-.06-.061-.02-.021-.041-.04-.061-.062a1.417 1.417 0 0 0-.062-.06l-.061-.063a.792.792 0 0 0-.062-.06c-.019-.022-.04-.041-.06-.061l-.062-.062c-.02-.022-.041-.041-.061-.061l-.062-.062-.06-.06c-.02-.022-.041-.042-.063-.063-.019-.021-.04-.04-.06-.06l-.061-.063c-.019-.021-.041-.04-.062-.06-.019-.022-.041-.041-.06-.063l-.062-.06-.061-.061-.062-.062-.061-.06c-.019-.022-.04-.042-.062-.063-.019-.021-.041-.04-.06-.06l-.061-.063-.062-.06c-.02-.022-.041-.041-.06-.063l-.062-.06-.061-.06c-.02-.022-.041-.042-.062-.063l-.061-.06c-.019-.022-.041-.042-.062-.063l-.06-.06c-.02-.022-.041-.041-.062-.063a1.556 1.556 0 0 0-1.134-.492H86.703c-.26 0-.5.069-.716.182a1.553 1.553 0 0 0-.716-.182H74.153c-.864 0-1.563.701-1.563 1.565v5.748l-1.824-3.364a1.525 1.525 0 0 0-.29-.377l-.06-.06c-.02-.022-.041-.041-.063-.063l-.06-.06-.062-.062-.06-.061-.063-.062-.06-.06c-.02-.022-.041-.042-.063-.063l-.06-.06c-.02-.022-.041-.042-.062-.063l-.06-.06c-.02-.022-.042-.041-.061-.061l-.062-.062-.061-.06c-.02-.022-.04-.042-.062-.063l-.06-.06c-.02-.022-.041-.042-.063-.063l-.06-.06c-.02-.022-.041-.041-.062-.063l-.06-.06-.061-.061-.063-.062-.06-.06c-.02-.022-.041-.042-.062-.063l-.06-.06c-.02-.022-.042-.041-.063-.063l-.06-.06c-.02-.022-.041-.041-.062-.063l-.061-.06-.062-.062-.06-.061-.061-.06c-.02-.022-.041-.042-.062-.063l-.06-.06c-.02-.022-.042-.041-.063-.063l-.06-.06c-.02-.022-.041-.041-.063-.062-.02-.022-.04-.041-.06-.061l-.062-.062-.06-.06c-.02-.022-.042-.042-.061-.062l-.062-.062-.061-.06-.062-.063-.06-.06-.063-.062-.06-.061-.062-.062-.06-.06c-.02-.022-.042-.042-.063-.063a1.563 1.563 0 0 0-1.144-.502H53.718c-.864 0-1.563.701-1.563 1.565v14.43l-3.49-11.745a1.555 1.555 0 0 0-.418-.68 1.183 1.183 0 0 0-.062-.06l-.06-.062a1.224 1.224 0 0 0-.062-.06l-.06-.063-.061-.06c-.02-.022-.041-.042-.063-.063l-.06-.06c-.02-.022-.041-.041-.062-.063l-.06-.06-.063-.062-.06-.061c-.02-.021-.041-.04-.062-.06l-.061-.063c-.02-.021-.04-.04-.062-.06l-.06-.063-.061-.06-.062-.062c-.02-.022-.041-.041-.06-.061l-.063-.062-.06-.06c-.02-.022-.041-.042-.063-.062l-.06-.062-.062-.06c-.02-.022-.041-.041-.06-.063l-.061-.06-.062-.062-.061-.061-.062-.062-.06-.06c-.02-.022-.041-.042-.063-.063l-.06-.06c-.02-.022-.041-.042-.062-.061l-.06-.062c-.02-.022-.042-.041-.063-.061l-.06-.062-.061-.06c-.02-.022-.041-.042-.062-.063l-.06-.06c-.02-.022-.042-.042-.063-.063l-.06-.06c-.02-.022-.041-.041-.062-.061l-.061-.062c-.02-.021-.04-.041-.062-.061l-.06-.062-.061-.06c-.02-.022-.041-.042-.062-.063l-.06-.06c-.02-.022-.042-.041-.063-.063l-.06-.06-.063-.063a1.56 1.56 0 0 0-1.143-.5H26.828c-.692 0-1.301.455-1.498 1.119L21.838 40.33v-8.168c0-.447-.19-.85-.492-1.135l-.062-.06-.06-.062c-.02-.021-.041-.041-.063-.061l-.06-.062-.06-.06c-.02-.022-.042-.042-.063-.063l-.06-.06c-.02-.022-.041-.042-.062-.063l-.06-.06c-.02-.022-.042-.041-.063-.063l-.06-.06a1.183 1.183 0 0 0-.063-.06l-.06-.063a1.224 1.224 0 0 0-.062-.06l-.06-.063-.061-.06c-.02-.022-.041-.041-.063-.063a1.156 1.156 0 0 0-.06-.06l-.062-.062c-.02-.022-.041-.041-.06-.061a1.224 1.224 0 0 0-.063-.06l-.06-.063a1.226 1.226 0 0 0-.062-.06l-.061-.063-.06-.06c-.02-.022-.041-.041-.063-.063a1.196 1.196 0 0 0-.06-.06l-.062-.062a1.239 1.239 0 0 0-.06-.061l-.063-.062-.06-.06a1.183 1.183 0 0 0-.063-.061l-.06-.063a1.224 1.224 0 0 0-.062-.06l-.06-.062c-.02-.022-.042-.041-.061-.061l-.062-.062c-.02-.021-.04-.041-.061-.06-.02-.022-.04-.042-.062-.063l-.06-.06c-.02-.022-.041-.042-.063-.061l-.06-.063-.062-.06-.06-.062-.062-.061-.061-.062c-.02-.021-.04-.041-.061-.06-.02-.022-.041-.042-.062-.063l-.06-.06c-.02-.022-.042-.041-.063-.063a1.553 1.553 0 0 0-1.133-.492H5.472c-.864 0-1.563.701-1.563 1.565v18.602c0 .333-.027.528-.05.632a2.618 2.618 0 0 1-.431.028H1.563a1.562 1.562 0 0 0-1.559 1.687l.718 9.337c.032.416.227.783.517 1.044.021.022.04.043.06.061.022.021.04.043.063.062.02.021.04.043.06.061.021.021.04.042.062.062.021.021.04.043.06.06.022.022.04.043.063.063l.06.062c.022.021.04.042.063.06.02.022.039.043.06.063.021.021.04.042.062.06.021.022.04.043.062.063.021.02.04.042.06.06.022.022.04.043.063.062.02.022.04.043.06.061.022.021.04.043.062.062.022.021.04.043.061.062.021.022.04.043.062.061l.06.062c.022.021.04.043.063.06.02.022.04.043.062.063.02.021.04.042.06.06.021.022.04.043.062.063.021.02.04.042.061.06.021.022.04.043.062.063.021.02.04.042.06.06.022.021.04.043.063.062.02.021.04.043.06.062.021.022.04.043.062.061l.06.062c.022.021.04.043.063.06.021.022.04.043.062.063.021.021.04.042.06.06.022.022.04.043.063.063.02.021.039.042.06.06.021.022.04.043.062.063.021.02.04.042.06.062.022.02.04.042.063.06l.06.063c.022.02.04.042.062.06.022.021.04.043.062.062.022.021.04.043.061.061.021.021.04.042.062.062.021.021.04.043.06.06.022.022.04.043.063.063.02.021.04.042.06.06.021.022.04.043.062.063.021.02.04.042.06.062.022.021.04.042.063.06l.06.063c.022.02.04.042.063.06.283.285.673.463 1.103.463h3.084c3.521 0 7.078-.38 9.632-2.203.013.014.027.025.04.038l.063.062.06.06c.02.022.041.042.062.063l.06.06c.02.022.042.042.063.063l.06.06c.02.022.041.041.063.063l.062.062.06.06c.02.022.041.041.062.063l.06.06.063.062.06.061.063.062.06.06c.02.022.041.042.062.063l.062.062.06.06c.02.022.042.042.063.063l.06.06c.02.022.041.041.062.063l.061.06.062.062.06.061.063.062.06.06c.02.022.041.042.062.063.295.32.71.507 1.15.507h12.551c.727 0 1.357-.501 1.522-1.21l.722-3.1h3.156c.07.277.213.519.403.71.02.022.041.041.06.061l.063.062.06.06c.02.022.041.042.063.063l.06.06c.02.022.041.042.062.063l.06.06c.02.022.042.041.063.063l.06.06c.02.022.041.041.062.062.02.022.041.041.062.063l.061.06.062.062c.02.022.04.041.06.061l.063.062.06.06c.02.022.041.042.062.063l.06.06c.02.022.042.042.063.063l.062.062.06.06c.02.022.041.041.063.063l.06.06.062.062c.02.022.041.041.06.061l.063.062.06.06c.02.022.041.042.063.063l.06.06c.02.022.04.042.062.063l.062.062.06.06c.02.022.042.041.063.063l.06.06c.02.022.041.041.062.063l.061.06.062.062.06.061.063.062.062.062.06.06c.02.022.041.042.062.063l.06.06c.02.022.042.042.063.063l.06.06c.02.022.041.041.063.063l.06.06c.02.022.041.041.062.062.02.022.041.041.06.061l.063.062c.289.328.71.53 1.17.53h12.55c.124 0 .246-.015.364-.043.113.027.23.042.351.042H67.95c.864 0 1.563-.701 1.563-1.565v-5.747l1.824 3.363c.078.143.176.268.29.377l.061.06c.02.022.041.042.062.063l.06.06c.02.022.042.041.063.063l.06.06c.02.022.041.041.063.063l.06.06.062.062.06.061.063.062.062.062.06.06c.02.022.041.042.062.063l.061.06c.02.022.04.042.062.063l.06.06c.02.022.041.041.063.063l.06.06.062.062.062.063.06.06.063.062.06.061.063.062.06.06c.02.022.041.042.062.063l.06.06c.02.022.042.041.063.063l.06.06c.02.022.041.041.063.062.02.022.04.041.062.063l.06.06.062.062c.02.022.041.041.06.061l.063.062.06.06c.02.022.041.042.062.063l.061.06c.02.022.04.042.062.063l.062.062.06.06c.02.022.041.041.063.063l.06.06c.02.022.041.041.062.062.02.022.041.041.06.061l.063.062.06.06c.02.022.041.042.063.063l.06.06c.02.022.041.042.062.063.292.315.705.502 1.146.502h12.552c.26 0 .5-.069.716-.182.216.112.457.182.716.182h27.255c.274 0 .526-.076.75-.199.207.102.437.164.684.164h10.759c.247 0 .476-.062.684-.164.224.123.476.2.749.2h12.372c.864 0 1.563-.7 1.563-1.565v-3.761l1.25 1.596a1.7 1.7 0 0 0 .154.167l.061.06c.019.022.041.041.062.063l.06.06.062.062.061.061.062.062.062.062.061.061c.019.021.041.04.062.062.019.021.041.041.06.06.02.022.041.042.062.063l.061.06c.02.022.041.041.062.063l.061.06c.019.021.04.041.062.063l.062.062.06.06.062.062.061.061.062.062.06.06c.02.022.041.042.062.063l.061.06c.02.022.041.042.062.063l.061.06c.019.022.041.041.062.063l.062.062.06.06c.02.022.041.041.062.063l.061.06.062.062.061.061c.019.021.04.04.062.062.019.021.041.041.06.06.02.022.041.042.062.063l.062.062.061.06c.02.022.041.042.062.063l.061.06c.019.022.04.041.062.063l.06.06.062.062.061.061.062.062.06.06c.02.022.041.042.062.063l.062.062.061.06c.02.022.041.042.062.063l.061.06c.294.314.704.495 1.137.495h14.524a1.567 1.567 0 0 0 1.205-2.565l-.01-.031Z"/>
    <path fill="#fff" d="M5.472 47.62c0 1.688-.539 2.226-2.044 2.226H1.563l.718 9.337h3.084c8.068 0 11.763-2.298 11.763-9.409V29.018H5.472V47.62ZM26.808 29.018l-8.965 30.165h12.551l1.004-4.31h8.033l1.003 4.31h12.551L44.02 29.018H26.807h.001Zm6.598 17.237 2.009-8.583 2.008 8.583H33.406ZM74.142 43.562 66.253 29.02h-12.55v30.164H64.82V44.64l7.889 14.544h12.55V29.018H74.142v14.544ZM98.347 47.512h15.061V40.33H98.347v-2.154h15.42v-9.158H86.691v30.165h27.255v-9.516H98.347v-2.155ZM126.138 50.17h-10.759v8.976h10.759V50.17ZM149.267 44.209l11.654-15.19h-13.806l-7.172 9.55v-9.55h-12.372v30.164h12.372v-9.157l7.172 9.157h14.524L149.267 44.21ZM150.895 21.78a.363.363 0 0 1-.299-.158c-1.852-2.676-2.77-3.566-4.558-3.566-.649 0-1.455.113-2.697.377a.366.366 0 0 1-.407-.205.363.363 0 0 1 .111-.442c3.215-2.442 3.455-3.222 2.333-7.582a.364.364 0 0 1 .651-.298c1.852 2.676 2.77 3.567 4.559 3.567.648 0 1.454-.113 2.696-.377a.365.365 0 0 1 .296.646c-3.215 2.442-3.455 3.223-2.333 7.583a.365.365 0 0 1-.352.454Z"/>
    <path fill="#000" d="M145.732 10.112c1.904 2.752 2.908 3.723 4.857 3.723.75 0 1.638-.144 2.771-.384-3.326 2.527-3.619 3.475-2.465 7.964-1.904-2.752-2.908-3.724-4.857-3.724-.75 0-1.638.144-2.771.384 3.326-2.526 3.619-3.475 2.465-7.963Zm-.002-.729a.73.73 0 0 0-.703.91c.529 2.055.757 3.352.457 4.321-.261.843-.932 1.57-2.659 2.881a.728.728 0 0 0 .591 1.293c1.215-.258 1.999-.368 2.62-.368 1.545 0 2.342.638 4.26 3.41a.725.725 0 0 0 .899.247.73.73 0 0 0 .402-.844c-.529-2.054-.757-3.351-.457-4.32.261-.842.929-1.567 2.647-2.874a.73.73 0 0 0-.376-1.316l-.052-.001c-.021 0-.042 0-.062.002a.605.605 0 0 0-.103.017c-1.207.256-1.987.366-2.606.366-1.545 0-2.34-.638-4.26-3.41a.725.725 0 0 0-.598-.314Z"/>
    <path fill="#fff" d="M140.089 15.722a.22.22 0 0 1-.207-.148c-.879-2.572-1.259-2.885-3.689-3.05a.222.222 0 0 1-.203-.186.221.221 0 0 1 .137-.239c2.269-.888 2.536-1.301 2.602-4.02a.22.22 0 0 1 .22-.214.22.22 0 0 1 .207.148c.88 2.572 1.259 2.885 3.689 3.05a.222.222 0 0 1 .203.186.221.221 0 0 1-.137.239c-2.269.888-2.537 1.301-2.602 4.02a.22.22 0 0 1-.186.212l-.034.002Z"/>
    <path fill="#000" d="M138.949 8.085c.905 2.648 1.367 3.027 3.882 3.197-2.348.919-2.674 1.421-2.742 4.219-.905-2.648-1.367-3.028-3.882-3.197 2.349-.92 2.674-1.421 2.742-4.22Zm0-.44a.44.44 0 0 0-.44.43c-.063 2.613-.293 2.97-2.462 3.818a.438.438 0 0 0-.274.477.437.437 0 0 0 .405.371c2.324.157 2.65.428 3.496 2.902a.44.44 0 0 0 .855-.13c.064-2.615.293-2.972 2.463-3.82a.439.439 0 0 0 .273-.477.437.437 0 0 0-.404-.372c-2.325-.156-2.65-.427-3.496-2.902a.441.441 0 0 0-.416-.297Z"/>
    <path fill="#fff" d="M125.116 24.992a.694.694 0 0 1-.597-.34c-3.804-6.35-5.449-7.723-9.26-7.723-1.041 0-2.301.112-4.085.363a.695.695 0 0 1-.744-.435.695.695 0 0 1 .248-.825c6.12-4.286 6.609-5.776 4.757-14.495a.695.695 0 0 1 1.276-.502c3.804 6.351 5.449 7.723 9.26 7.723 1.041 0 2.299-.111 4.085-.363a.695.695 0 0 1 .744.435c.119.3.016.641-.248.826-6.12 4.285-6.609 5.776-4.757 14.494a.697.697 0 0 1-.679.842Z"/>
    <path fill="#000" d="M116.116 1.393c3.698 6.175 5.522 8.062 9.857 8.062 1.178 0 2.543-.14 4.182-.37-6.343 4.441-6.942 6.252-5.039 15.21-3.699-6.175-5.523-8.062-9.857-8.062-1.179 0-2.543.14-4.182.37 6.343-4.44 6.942-6.251 5.039-15.21Zm0-1.393a1.394 1.394 0 0 0-1.36 1.684c.875 4.117 1.231 6.703.613 8.57-.53 1.601-1.814 2.915-5.089 5.209a1.393 1.393 0 0 0 .991 2.52c1.752-.246 2.981-.357 3.988-.357 3.528 0 4.985 1.243 8.664 7.385a1.39 1.39 0 0 0 1.703.579c.633-.25.992-.92.851-1.587-.875-4.117-1.232-6.703-.613-8.57.53-1.598 1.81-2.91 5.069-5.194a1.392 1.392 0 0 0-.777-2.548c-.027 0-.052 0-.079.003a1.49 1.49 0 0 0-.138.014c-1.739.244-2.963.353-3.965.353-3.528 0-4.985-1.242-8.664-7.385A1.39 1.39 0 0 0 116.116 0Z"/>
    <path fill="#fff" d="M56.078 86.838a.134.134 0 0 1-.112-.058c-.67-.942-1.004-1.256-1.655-1.256-.26 0-.579.048-1.1.167-.009.002-.019.002-.03.002a.137.137 0 0 1-.124-.08.136.136 0 0 1 .043-.166c1.262-.93 1.364-1.217.979-2.8a.137.137 0 0 1 .132-.169c.044 0 .085.02.112.058.67.943 1.003 1.256 1.654 1.256.261 0 .58-.048 1.1-.166.01-.003.02-.003.03-.003a.136.136 0 0 1 .08.247c-1.26.929-1.362 1.217-.977 2.799a.137.137 0 0 1-.133.17Z"/>
    <path fill="#000" d="M54.211 82.616c.684.962 1.057 1.314 1.766 1.314.3 0 .66-.063 1.13-.17-1.304.96-1.427 1.31-1.03 2.941-.683-.961-1.057-1.314-1.766-1.314-.3 0-.66.064-1.129.17 1.304-.959 1.427-1.309 1.03-2.94Zm-.001-.273a.274.274 0 0 0-.264.339c.37 1.518.284 1.767-.926 2.656a.273.273 0 0 0 .223.485c.509-.115.819-.163 1.068-.163.556 0 .859.235 1.545 1.2a.274.274 0 0 0 .336.088.274.274 0 0 0 .15-.313c-.369-1.516-.283-1.766.92-2.654a.273.273 0 0 0-.144-.496H57.08c-.014 0-.028.004-.042.007-.505.115-.814.162-1.063.162-.555 0-.858-.236-1.545-1.2a.274.274 0 0 0-.222-.114v.003Z"/>
    <path fill="#fff" d="M62.93 88.134a.182.182 0 0 1-.149-.08c-.96-1.422-1.405-1.865-2.32-1.865-.3 0-.666.047-1.222.155-.011.003-.022.003-.035.003a.18.18 0 0 1-.111-.32c1.518-1.19 1.622-1.581 1.023-3.803a.18.18 0 0 1 .323-.148c.96 1.423 1.405 1.866 2.32 1.866.3 0 .665-.047 1.22-.155.012-.003.023-.003.036-.003a.18.18 0 0 1 .111.32c-1.518 1.19-1.622 1.581-1.025 3.803a.18.18 0 0 1-.173.227h.003Z"/>
    <path fill="#000" d="M60.292 82.177c.981 1.453 1.477 1.945 2.47 1.945.345 0 .75-.059 1.255-.159-1.573 1.234-1.702 1.708-1.086 3.99-.981-1.452-1.477-1.945-2.47-1.945-.345 0-.75.06-1.256.16 1.573-1.234 1.703-1.708 1.087-3.99Zm-.001-.36a.361.361 0 0 0-.347.453c.576 2.14.488 2.478-.961 3.614a.36.36 0 0 0 .29.637c.543-.108.898-.153 1.187-.153.785 0 1.19.335 2.172 1.787a.36.36 0 0 0 .644-.295c-.576-2.137-.488-2.477.954-3.608a.36.36 0 0 0-.198-.647h-.043c-.017 0-.032.004-.049.007-.54.105-.892.15-1.18.15-.785 0-1.19-.334-2.172-1.786a.36.36 0 0 0-.297-.158Z"/>
  </g>
</svg>