<?xml version="1.0" encoding="UTF-8"?>
<svg id="Layer_1" data-name="Layer 1" xmlns="http://www.w3.org/2000/svg" viewBox="0 0 865.78 209.98" fill="current">
  <defs>
    <style>
    @font-face {
        font-family: 'LOTTERIA CHAB';
        src: url('https://cdn.jsdelivr.net/gh/projectnoonnu/noonfonts_2302@1.0/LOTTERIACHAB.woff2')
          format('woff2');
        font-weight: normal;
        font-style: normal;
      }
      .cls-1 {
        font-family: LOTTERIACHAB-KSCpc-EUC-H, 'LOTTERIA CHAB';
        font-size: 54px;
      }
    </style>
  </defs>
  <text class="cls-1" transform="translate(16.96 125.57) rotate(30.57)"><tspan x="0" y="0">H</tspan></text>
  <text class="cls-1" transform="translate(56.29 148.15) rotate(25.86)"><tspan x="0" y="0">i</tspan></text>
  <text class="cls-1" transform="translate(74.32 156.87) rotate(23.03)"><tspan x="0" y="0">,</tspan></text>
  <text class="cls-1" transform="translate(92.2 164.39) rotate(20.69)"><tspan x="0" y="0"> </tspan></text>
  <text class="cls-1" transform="translate(104.41 169.25) rotate(17.39)"><tspan x="0" y="0">t</tspan></text>
  <text class="cls-1" transform="translate(134.6 178.8) rotate(11.89)"><tspan x="0" y="0">h</tspan></text>
  <text class="cls-1" transform="translate(171.83 186.46) rotate(5.75)"><tspan x="0" y="0">e</tspan></text>
  <text class="cls-1" transform="translate(206.19 189.77) rotate(-.17)"><tspan x="0" y="0">r</tspan></text>
  <text class="cls-1" transform="translate(238.18 189.66) rotate(-6.29)"><tspan x="0" y="0">e</tspan></text>
  <text class="cls-1" transform="translate(272.12 185.56) rotate(-11.43)"><tspan x="0" y="0">!</tspan></text>
  <text class="cls-1" transform="translate(292.27 181.36) rotate(-14.52)"><tspan x="0" y="0"> </tspan></text>
  <text class="cls-1" transform="translate(305.57 178.35) rotate(-19.08)"><tspan x="0" y="0">L</tspan></text>
  <text class="cls-1" transform="translate(341.22 165.8) rotate(-25.26)"><tspan x="0" y="0">e</tspan></text>
  <text class="cls-1" transform="translate(372.11 151.06) rotate(-30.46)"><tspan x="0" y="0">t</tspan></text>
  <text class="cls-1" transform="translate(398.67 135.19) rotate(-34.17)"><tspan x="0" y="0">’</tspan></text>
  <text class="cls-1" transform="translate(414.85 124.2) rotate(-37.05)"><tspan x="0" y="0">s</tspan></text>
  <text class="cls-1" transform="translate(440.03 105) rotate(-35.51)"><tspan x="0" y="0"> </tspan></text>
  <text class="cls-1" transform="translate(448.86 97.92) rotate(-31.29)"><tspan x="0" y="0">w</tspan></text>
  <text class="cls-1" transform="translate(485.1 76.02) rotate(-24.58)"><tspan x="0" y="0">o</tspan></text>
  <text class="cls-1" transform="translate(516.02 61.92) rotate(-18.46)"><tspan x="0" y="0">r</tspan></text>
  <text class="cls-1" transform="translate(543.18 52.58) rotate(-11.92)"><tspan x="0" y="0">k</tspan></text>
  <text class="cls-1" transform="translate(576.78 45.94) rotate(-7.02)"><tspan x="0" y="0"> </tspan></text>
  <text class="cls-1" transform="translate(587.9 44.19) rotate(-2.66)"><tspan x="0" y="0">t</tspan></text>
  <text class="cls-1" transform="translate(616.43 42.62) rotate(4.02)"><tspan x="0" y="0">o</tspan></text>
  <text class="cls-1" transform="translate(650.23 44.88) rotate(11.05)"><tspan x="0" y="0">g</tspan></text>
  <text class="cls-1" transform="translate(684.9 51.71) rotate(17.34)"><tspan x="0" y="0">e</tspan></text>
  <text class="cls-1" transform="translate(714.93 61.12) rotate(22.55)"><tspan x="0" y="0">t</tspan></text>
  <text class="cls-1" transform="translate(741.59 72) rotate(27.6)"><tspan x="0" y="0">h</tspan></text>
  <text class="cls-1" transform="translate(772.54 88.22) rotate(32.46)"><tspan x="0" y="0">e</tspan></text>
  <text class="cls-1" transform="translate(799.22 105.21) rotate(36.71)"><tspan x="0" y="0">r</tspan></text>
  <text class="cls-1" transform="translate(822.5 122.7) rotate(40.17)"><tspan x="0" y="0">!</tspan></text>
</svg>