<svg width="25" height="24" viewBox="0 0 25 24" fill="none" xmlns="http://www.w3.org/2000/svg">
<g id="scroll-arrow">
<g id="Vector">
<path id="Vector-21" d="M6.23477 10.2772C5.94603 9.9802 5.4712 9.97351 5.17421 10.2623C4.87722 10.551 4.87054 11.0258 5.15928 11.3228L6.23477 10.2772ZM12.697 18L12.1593 18.5228C12.3005 18.6681 12.4944 18.75 12.697 18.75C12.8996 18.75 13.0936 18.6681 13.2348 18.5228L12.697 18ZM20.2348 11.3228C20.5235 11.0258 20.5168 10.551 20.2198 10.2623C19.9228 9.97352 19.448 9.9802 19.1593 10.2772L20.2348 11.3228ZM7.40178 5.47721C7.11305 5.18021 6.63823 5.17351 6.34123 5.46224C6.04423 5.75097 6.03753 6.2258 6.32626 6.52279L7.40178 5.47721ZM12.697 12L12.1593 12.5228C12.3005 12.668 12.4944 12.75 12.697 12.75C12.8996 12.75 13.0936 12.668 13.2348 12.5228L12.697 12ZM19.0678 6.52279C19.3565 6.2258 19.3498 5.75097 19.0528 5.46224C18.7558 5.17351 18.281 5.18021 17.9923 5.47721L19.0678 6.52279ZM5.15928 11.3228L12.1593 18.5228L13.2348 17.4772L6.23477 10.2772L5.15928 11.3228ZM13.2348 18.5228L20.2348 11.3228L19.1593 10.2772L12.1593 17.4772L13.2348 18.5228ZM6.32626 6.52279L12.1593 12.5228L13.2348 11.4772L7.40178 5.47721L6.32626 6.52279ZM13.2348 12.5228L19.0678 6.52279L17.9923 5.47721L12.1593 11.4772L13.2348 12.5228Z" fill="black"/>
</g>
</g>
</svg>
