<svg width="current" height="auto" viewBox="0 0 1037 843" fill="none" xmlns="http://www.w3.org/2000/svg">
<g id="sparkleGhost">
<g id="ghost">
<path id="right_eye" d="M642.813 425.542C642.813 448.847 628.636 467.762 611.168 467.762C593.7 467.762 579.523 448.847 579.523 425.542C579.523 402.236 593.7 383.322 611.168 383.322C628.636 383.322 642.813 402.236 642.813 425.542Z" fill="current"/>
<path id="left_eye" d="M422.703 467.762C440.18 467.762 454.348 448.86 454.348 425.542C454.348 402.224 440.18 383.322 422.703 383.322C405.227 383.322 391.058 402.224 391.058 425.542C391.058 448.86 405.227 467.762 422.703 467.762Z" fill="current"/>
<path id="ghost_layout" d="M829.871 756.629V510.124C829.871 321.111 689.77 168 516.935 168C344.101 168 204 321.177 204 510.091V756.629C204 800.537 246.278 829.1 282.234 809.47C296.449 801.686 312.39 798.15 328.353 799.238C344.316 800.326 359.7 805.998 372.86 815.649C387.614 826.467 405.123 832.261 423.055 832.261C440.987 832.261 458.496 826.467 473.25 815.649L484.296 807.611C493.892 800.582 505.276 796.816 516.935 796.816C528.595 796.816 539.979 800.582 549.575 807.611L560.621 815.649C575.375 826.467 592.884 832.261 610.816 832.261C628.748 832.261 646.257 826.467 661.011 815.649C674.174 805.991 689.565 800.316 705.534 799.228C721.502 798.14 737.449 801.681 751.668 809.47C787.593 829.1 829.871 800.537 829.871 756.629Z" stroke="current" fill="none" stroke-width="20"/>
</g>
<g id="sparkles">
<circle id="dot4" cx="913" cy="244" r="17" fill="current"/>
<circle id="dot3" cx="674.5" cy="64.5" r="10.5" fill="current"/>
<circle id="dot2" cx="168" cy="181" r="13" fill="current"/>
<circle id="dot1" cx="100.5" cy="358.5" r="13.5" fill="current"/>
<path id="plus" fill-rule="evenodd" clip-rule="evenodd" d="M55.1413 239.859V206H33.8587V239.859H0V261.141H33.8587V295H55.1413V261.141H89V239.859H55.1413Z" fill="current"/>
<path id="plus2" fill-rule="evenodd" clip-rule="evenodd" d="M1014.55 308.446V286H1000.45L1000.45 308.446H978V322.554H1000.45L1000.45 345H1014.55V322.554H1037V308.446H1014.55Z" fill="current"/>
<g id="sparkle2">
<path id="Union" fill-rule="evenodd" clip-rule="evenodd" d="M781.009 80.7013L780.996 80.7617C778.261 94.3276 768.091 105.991 754.961 110.542C750.758 111.993 746.116 112.822 742.751 112.862L742.684 112.862C741.945 112.861 740.448 112.859 739.005 113.225C736.699 113.81 735.243 115.052 734.377 115.961C731.534 118.85 730.416 123.313 732.398 127.372C734.304 131.278 738.224 133.093 741.858 133.093C743.22 133.093 747.464 133.55 749.489 133.984C749.516 133.99 749.544 133.996 749.571 134.001C763.246 136.781 774.685 146.713 779.445 159.876L779.465 159.932C780.798 163.534 781.558 167.368 781.831 171.682C781.894 172.915 781.977 174.255 782.204 175.422C782.511 177.007 783.16 178.754 784.611 180.349C784.645 180.387 784.68 180.424 784.714 180.461C788.78 184.765 795.256 184.37 799.055 180.607C799.885 179.815 801.099 178.432 801.718 176.247C802.142 174.748 802.139 173.25 802.138 172.613L802.138 172.519C802.138 169.106 802.932 164.43 804.363 160.323L804.373 160.296C807.772 150.43 815.254 141.958 824.816 137.267C829.604 134.929 834.014 133.703 840.167 133.2L840.179 133.199L840.498 133.172H840.498C841.995 133.048 843.486 132.925 844.591 132.704C845.294 132.563 846.479 132.273 847.728 131.541C848.997 130.798 849.809 129.909 850.27 129.332C851.778 127.497 852.4 125.381 852.514 123.578C852.629 121.768 852.281 119.387 850.745 117.237C850.695 117.166 850.643 117.096 850.59 117.027C847.595 113.111 843.296 112.863 841.073 112.863C839.458 112.863 835.132 112.286 832.526 111.67C820.325 108.534 809.992 99.5828 805.227 88.0604C803.333 83.4772 802.138 77.613 802.138 73.9711C802.138 72.5104 801.967 70.7648 801.357 69.0519C800.855 67.6406 799.391 64.4537 795.655 63.1079C791.925 61.7525 787.948 62.6479 785.144 65.247C784.254 66.0674 783.143 67.3492 782.481 69.2612C781.922 70.8745 781.907 72.3505 781.907 73.0359C781.907 74.4806 781.496 78.3766 781.009 80.7013ZM755.165 118.867C755.24 118.845 755.316 118.823 755.391 118.801C755.332 118.818 755.274 118.836 755.215 118.853L755.165 118.867ZM761.543 116.517C761.6 116.492 761.656 116.466 761.712 116.44L761.592 116.495L761.546 116.516L761.543 116.517ZM785.551 92.4569C785.506 92.556 785.46 92.6549 785.415 92.7536C785.46 92.6549 785.506 92.556 785.551 92.4569ZM822.442 116.537C822.366 116.501 822.289 116.466 822.213 116.431C822.289 116.466 822.366 116.501 822.442 116.537ZM787.845 159.776C787.789 159.589 787.732 159.403 787.673 159.217C787.709 159.33 787.744 159.443 787.778 159.556C787.788 159.587 787.797 159.618 787.806 159.648C787.819 159.691 787.832 159.733 787.845 159.776ZM789.797 170.9C789.804 171.009 789.811 171.118 789.818 171.227C789.811 171.118 789.804 171.009 789.797 170.9ZM794.149 171.678L794.153 171.547C794.151 171.591 794.15 171.634 794.149 171.678ZM797.105 156.859C797.131 156.787 797.157 156.716 797.184 156.645L797.193 156.619C797.164 156.699 797.134 156.779 797.105 156.859ZM793.31 154.861L793.31 154.862C793.29 154.915 793.27 154.969 793.25 155.022C793.24 155.05 793.229 155.078 793.219 155.106C793.249 155.024 793.28 154.942 793.31 154.861ZM790.924 155.696L790.923 155.692L790.921 155.687C790.922 155.69 790.923 155.693 790.924 155.696ZM790.913 155.666L790.91 155.657L790.906 155.649C790.909 155.654 790.911 155.66 790.913 155.666ZM774.909 123.053C781.64 118.59 787.492 112.682 792.006 105.936C793.102 107.616 794.249 109.211 795.402 110.657C797.659 113.501 802.602 118.367 805.451 120.489C806.633 121.387 807.814 122.227 809.01 123.018C802.259 127.513 796.424 133.359 791.944 140.102C787.533 133.374 781.908 127.717 774.909 123.053ZM786.131 73.8201C786.132 73.8199 786.133 73.8302 786.134 73.8516C786.132 73.831 786.131 73.8203 786.131 73.8201ZM797.909 72.9546C797.91 72.9559 797.91 72.9842 797.907 73.0355C797.907 72.979 797.908 72.9533 797.909 72.9546ZM841.354 128.869C841.372 128.87 841.38 128.871 841.38 128.871C841.38 128.872 841.371 128.871 841.354 128.869ZM742.162 128.871C742.144 128.872 742.14 128.872 742.152 128.872L742.162 128.871ZM792.82 156.165C792.82 156.166 792.82 156.167 792.819 156.168Z" fill="current"/>
</g>
<g id="sparkle1">
<path id="Union_2" fill-rule="evenodd" clip-rule="evenodd" d="M257.078 44.755L257.063 44.8268C253.824 60.9308 241.783 74.7767 226.236 80.1784C221.259 81.9013 215.763 82.8855 211.779 82.9335L211.7 82.9334C210.824 82.9321 209.052 82.9294 207.344 83.364C204.613 84.0587 202.889 85.5329 201.864 86.6112C198.497 90.0417 197.173 95.3392 199.52 100.158C201.778 104.795 206.418 106.949 210.721 106.949C212.335 106.949 217.359 107.492 219.756 108.007C219.789 108.014 219.822 108.021 219.854 108.027C236.046 111.327 249.59 123.117 255.226 138.743L255.25 138.809C256.828 143.085 257.728 147.637 258.051 152.758C258.126 154.221 258.225 155.813 258.493 157.198C258.856 159.079 259.625 161.153 261.343 163.047C261.383 163.092 261.424 163.136 261.465 163.179C266.279 168.289 273.948 167.819 278.446 163.353C279.428 162.413 280.865 160.77 281.598 158.177C282.101 156.397 282.097 154.619 282.096 153.863L282.095 153.751C282.095 149.7 283.036 144.149 284.731 139.274L284.742 139.242C288.767 127.53 297.626 117.472 308.948 111.904C314.618 109.129 319.838 107.673 327.124 107.076L327.139 107.075L327.516 107.043H327.516C329.288 106.896 331.054 106.749 332.362 106.487C333.195 106.32 334.598 105.975 336.077 105.107C337.58 104.225 338.541 103.169 339.087 102.485C340.872 100.306 341.609 97.7936 341.744 95.6535C341.879 93.5058 341.468 90.6793 339.649 88.1263C339.589 88.0423 339.528 87.9593 339.465 87.8773C335.92 83.2285 330.829 82.9335 328.197 82.9335C326.284 82.9335 321.163 82.2491 318.077 81.5183C303.63 77.7951 291.395 67.1693 285.754 53.4911C283.511 48.0504 282.095 41.089 282.095 36.7657C282.095 35.0316 281.893 32.9594 281.172 30.9261C280.577 29.2507 278.844 25.4676 274.42 23.87C270.003 22.261 265.295 23.324 261.974 26.4093C260.921 27.3832 259.604 28.9048 258.821 31.1746C258.16 33.0897 258.141 34.8419 258.141 35.6556C258.141 37.3705 257.655 41.9954 257.078 44.755ZM226.477 90.0618C226.567 90.0358 226.656 90.0095 226.745 89.9831C226.709 89.9937 226.674 90.0043 226.638 90.0148C226.604 90.0247 226.57 90.0346 226.537 90.0445L226.477 90.0618ZM234.027 87.2735C234.095 87.2427 234.162 87.2118 234.23 87.1807L234.087 87.2462L234.033 87.2709L234.027 87.2735ZM272.641 152.598C272.639 152.649 272.638 152.701 272.637 152.753C272.637 152.729 272.638 152.704 272.639 152.68C272.639 152.653 272.64 152.625 272.641 152.598ZM277.877 130.945C277.873 130.953 277.869 130.961 277.866 130.969C277.793 131.127 277.72 131.286 277.649 131.445C277.72 131.286 277.793 131.127 277.866 130.969C277.869 130.961 277.873 130.953 277.877 130.945ZM306.137 87.295C306.046 87.2533 305.956 87.2113 305.866 87.1691C305.956 87.2113 306.046 87.2533 306.137 87.295ZM262.456 58.7102C262.403 58.8277 262.349 58.9451 262.295 59.0623C262.349 58.9451 262.403 58.8277 262.456 58.7102ZM311.708 94.9753C311.715 94.97 311.721 94.965 311.727 94.96C311.721 94.965 311.715 94.97 311.708 94.9753ZM268.825 133.798L268.817 133.776L268.801 133.735L268.788 133.702C268.801 133.734 268.813 133.766 268.825 133.798ZM269.86 136.667L269.858 136.661L269.856 136.655C269.857 136.659 269.858 136.663 269.86 136.667ZM271.062 134.341L271.062 134.341L271.01 134.479L271.004 134.496C271.023 134.445 271.043 134.393 271.062 134.341ZM271.643 132.791L271.643 132.792C271.6 132.906 271.558 133.02 271.516 133.135M249.856 95.0301C257.826 89.7326 264.755 82.7194 270.099 74.711C271.397 76.705 272.755 78.5994 274.12 80.3157C276.792 83.6917 282.646 89.4682 286.019 91.9869C287.418 93.053 288.817 94.0502 290.233 94.9885C282.239 100.325 275.331 107.265 270.026 115.269C264.803 107.282 258.142 100.567 249.856 95.0301ZM263.143 36.5865C263.144 36.5862 263.145 36.5984 263.147 36.6238C263.144 36.5994 263.143 36.5867 263.143 36.5865ZM277.089 35.559C277.09 35.5605 277.09 35.5941 277.086 35.655C277.086 35.5879 277.088 35.5574 277.089 35.559ZM328.53 101.935C328.551 101.936 328.56 101.937 328.56 101.938C328.56 101.938 328.549 101.937 328.53 101.935ZM211.082 101.937C211.06 101.939 211.055 101.939 211.07 101.938L211.082 101.937Z" fill="current"/>
</g>
</g>
</g>
</svg>
