<svg width="107" height="120" viewBox="0 0 107 120" fill="none" xmlns="http://www.w3.org/2000/svg">
<g id="star">
<path id="Union" fill-rule="evenodd" clip-rule="evenodd" d="M44.5252 22.813C44.9793 19.3303 50.0206 19.3302 50.4748 22.813L53.9417 49.4C54.1068 50.6661 55.0553 51.689 56.3054 51.9491L80.8835 57.0629C84.0687 57.7256 84.0687 62.2744 80.8835 62.9371L56.3054 68.0509C55.0553 68.311 54.1068 69.3339 53.9417 70.6L50.4748 97.187C50.0206 100.67 44.9793 100.67 44.5252 97.187L41.0582 70.6C40.8931 69.3339 39.9446 68.311 38.6945 68.0509L14.1164 62.9371C10.9312 62.2744 10.9312 57.7256 14.1164 57.0629L38.6945 51.9491C39.9446 51.689 40.8931 50.6661 41.0582 49.4L44.5252 22.813ZM74.5049 73.9382C74.6251 72.7377 76.3748 72.7377 76.495 73.9382L77.6234 85.2084C77.6647 85.6211 77.9565 85.9654 78.3568 86.0739L87.4382 88.5348C88.4228 88.8016 88.4228 90.1984 87.4382 90.4652L78.3568 92.9261C77.9565 93.0346 77.6647 93.3789 77.6234 93.7916L76.495 105.062C76.3748 106.262 74.6251 106.262 74.5049 105.062L73.3766 93.7916C73.3352 93.3789 73.0434 93.0346 72.6431 92.9261L63.5618 90.4652C62.5772 90.1984 62.5772 88.8016 63.5618 88.5348L72.6431 86.0739C73.0434 85.9654 73.3352 85.6211 73.3766 85.2084L74.5049 73.9382ZM95.495 57.9067C95.3744 56.7066 93.6255 56.7066 93.505 57.9067L92.8011 64.9151C92.7596 65.328 92.4675 65.6724 92.0669 65.7806L85.5737 67.5346C84.5881 67.8008 84.5881 69.1992 85.5737 69.4654L92.0669 71.2194C92.4675 71.3276 92.7596 71.672 92.8011 72.0849L93.505 79.0933C93.6255 80.2934 95.3744 80.2934 95.495 79.0933L96.1989 72.0849C96.2403 71.672 96.5325 71.3276 96.9331 71.2194L103.426 69.4654C104.412 69.1992 104.412 67.8008 103.426 67.5346L96.9331 65.7806C96.5325 65.6724 96.2403 65.328 96.1989 64.9151L95.495 57.9067Z" fill="#D9D9D9"/>
</g>
</svg>
